<svg id="svg" version="1.1" width="512" height="512" xmlns="http://www.w3.org/2000/svg" xmlns:xlink="http://www.w3.org/1999/xlink" ><g id="svgg"><path id="path0" d="M73.668 1.190 C 35.368 8.250,7.527 35.999,1.239 73.380 C -0.613 84.387,-0.641 317.211,1.208 327.827 C 7.803 365.692,36.754 393.786,74.768 399.211 C 79.092 399.827,116.679 400.011,204.297 399.843 L 327.734 399.606 335.165 397.551 C 368.680 388.286,393.222 360.896,398.794 326.541 C 400.610 315.339,400.608 84.158,398.791 73.739 C 392.729 38.979,367.919 12.152,332.870 2.459 L 325.391 0.391 202.344 0.272 C 102.990 0.175,78.213 0.352,73.668 1.190 M123.812 64.036 C 124.068 64.451,122.712 69.109,120.799 74.387 C 118.886 79.666,116.394 87.324,115.263 91.406 C 114.131 95.488,113.022 99.443,112.800 100.195 C 112.417 101.486,114.823 101.563,155.700 101.563 L 199.006 101.563 201.055 103.612 C 203.692 106.249,204.686 109.705,205.239 118.164 L 205.685 125.000 181.431 125.000 L 157.177 125.000 156.735 132.227 C 156.492 136.201,155.920 150.527,155.466 164.063 C 155.011 177.598,154.443 189.990,154.204 191.602 L 153.769 194.531 180.021 194.531 L 206.273 194.531 207.752 196.964 C 209.193 199.333,210.390 204.749,211.317 213.086 L 211.773 217.188 182.058 217.188 C 156.633 217.188,152.344 217.351,152.344 218.319 C 152.344 221.927,149.725 238.291,148.038 245.232 C 145.608 255.221,145.503 255.128,152.639 249.297 L 158.490 244.515 167.622 254.484 C 181.605 269.750,195.158 286.158,196.564 289.523 C 199.508 296.570,197.877 323.437,194.505 323.438 C 194.102 323.438,187.677 315.791,180.229 306.445 C 165.625 288.121,144.738 262.994,143.885 262.725 C 143.596 262.633,141.674 267.731,139.613 274.053 C 130.671 301.491,114.489 326.909,102.551 332.266 C 90.820 337.530,69.409 340.820,63.312 338.294 C 60.009 336.926,60.069 336.820,68.164 329.844 C 103.223 299.631,128.071 253.832,128.122 219.336 L 128.125 217.188 96.875 217.188 C 61.104 217.188,64.435 218.076,67.159 209.262 C 71.938 193.799,72.644 193.514,104.783 194.061 L 131.050 194.507 131.568 186.902 C 132.330 175.706,133.553 143.079,133.575 133.381 L 133.594 124.966 119.047 125.178 L 104.500 125.391 102.424 131.276 C 96.516 148.019,82.051 159.375,66.633 159.375 C 63.470 159.375,63.235 160.557,68.669 149.136 C 74.531 136.814,79.030 125.393,87.208 102.065 C 97.207 73.548,100.795 68.990,116.484 64.881 C 123.405 63.069,123.227 63.090,123.812 64.036 M340.469 99.375 C 341.714 100.620,341.841 305.541,340.598 307.864 C 339.825 309.307,338.720 309.375,316.025 309.375 L 292.262 309.375 286.225 312.554 C 281.387 315.102,268.234 323.200,254.960 331.802 C 253.135 332.985,252.348 331.176,247.670 315.039 L 246.028 309.375 236.323 309.375 C 227.527 309.375,226.542 309.233,225.809 307.864 C 224.682 305.759,224.682 102.054,225.809 99.949 C 226.809 98.079,338.613 97.520,340.469 99.375 M249.582 122.062 C 249.376 122.604,249.297 159.609,249.408 204.297 L 249.609 285.547 253.901 285.938 L 258.192 286.328 260.455 294.922 C 261.699 299.648,262.828 303.645,262.963 303.804 C 263.258 304.152,277.015 295.769,285.156 290.279 L 291.016 286.328 303.906 285.938 L 316.797 285.547 316.797 203.516 L 316.797 121.484 283.377 121.281 C 257.058 121.120,249.878 121.286,249.582 122.062 " stroke="none" fill="#000000" fill-rule="evenodd"></path></g></svg>